<svg width="61" height="60" viewBox="0 0 61 60" fill="none" xmlns="http://www.w3.org/2000/svg">
<rect x="1" y="0.5" width="59" height="59" stroke="#979495" stroke-opacity="0.5"/>
<path d="M30.4966 23.5905C26.9497 23.5905 24.0872 26.453 24.0872 29.9999C24.0872 33.5467 26.9497 36.4092 30.4966 36.4092C34.0435 36.4092 36.906 33.5467 36.906 29.9999C36.906 26.453 34.0435 23.5905 30.4966 23.5905ZM30.4966 34.1655C28.2029 34.1655 26.331 32.2936 26.331 29.9999C26.331 27.7061 28.2029 25.8342 30.4966 25.8342C32.7904 25.8342 34.6622 27.7061 34.6622 29.9999C34.6622 32.2936 32.7904 34.1655 30.4966 34.1655ZM37.1685 21.8342C36.3404 21.8342 35.6716 22.503 35.6716 23.3311C35.6716 24.1592 36.3404 24.828 37.1685 24.828C37.9966 24.828 38.6654 24.1624 38.6654 23.3311C38.6656 23.1345 38.6271 22.9397 38.5519 22.758C38.4768 22.5763 38.3665 22.4112 38.2275 22.2721C38.0884 22.1331 37.9233 22.0228 37.7416 21.9477C37.5599 21.8725 37.3651 21.834 37.1685 21.8342ZM42.9904 29.9999C42.9904 28.2749 43.006 26.5655 42.9091 24.8436C42.8122 22.8436 42.356 21.0686 40.8935 19.6061C39.4279 18.1405 37.656 17.6874 35.656 17.5905C33.931 17.4936 32.2216 17.5092 30.4997 17.5092C28.7747 17.5092 27.0654 17.4936 25.3435 17.5905C23.3435 17.6874 21.5685 18.1436 20.106 19.6061C18.6404 21.0717 18.1872 22.8436 18.0904 24.8436C17.9935 26.5686 18.0091 28.278 18.0091 29.9999C18.0091 31.7217 17.9935 33.4342 18.0904 35.1561C18.1872 37.1561 18.6435 38.9311 20.106 40.3936C21.5716 41.8592 23.3435 42.3124 25.3435 42.4092C27.0685 42.5061 28.7779 42.4905 30.4997 42.4905C32.2247 42.4905 33.9341 42.5061 35.656 42.4092C37.656 42.3124 39.431 41.8561 40.8935 40.3936C42.3591 38.928 42.8122 37.1561 42.9091 35.1561C43.0091 33.4342 42.9904 31.7249 42.9904 29.9999ZM40.2404 37.3686C40.0122 37.9374 39.7372 38.3624 39.2966 38.7999C38.856 39.2405 38.4341 39.5155 37.8654 39.7436C36.2216 40.3967 32.3185 40.2499 30.4966 40.2499C28.6747 40.2499 24.7685 40.3967 23.1247 39.7467C22.556 39.5186 22.131 39.2436 21.6935 38.803C21.2529 38.3624 20.9779 37.9405 20.7497 37.3717C20.0997 35.7249 20.2466 31.8217 20.2466 29.9999C20.2466 28.178 20.0997 24.2717 20.7497 22.628C20.9779 22.0592 21.2529 21.6342 21.6935 21.1967C22.1341 20.7592 22.556 20.4811 23.1247 20.253C24.7685 19.603 28.6747 19.7499 30.4966 19.7499C32.3185 19.7499 36.2247 19.603 37.8685 20.253C38.4372 20.4811 38.8622 20.7561 39.2997 21.1967C39.7404 21.6374 40.0154 22.0592 40.2435 22.628C40.8935 24.2717 40.7466 28.178 40.7466 29.9999C40.7466 31.8217 40.8935 35.7249 40.2404 37.3686Z" fill="#BCBCBC"/>
</svg>
