<svg width="61" height="60" viewBox="0 0 61 60" fill="none" xmlns="http://www.w3.org/2000/svg">
<rect x="1" y="0.5" width="59" height="59" stroke="#979495" stroke-opacity="0.5"/>
<path d="M44.5 29.9123C44.5 29.8436 44.5 29.7654 44.4969 29.6748C44.4938 29.4217 44.4875 29.1373 44.4813 28.8342C44.4563 27.9623 44.4125 27.0936 44.3438 26.2748C44.25 25.1467 44.1125 24.2061 43.925 23.4998C43.7271 22.7628 43.3393 22.0906 42.8002 21.5504C42.2612 21.0103 41.5898 20.621 40.8531 20.4217C39.9688 20.1842 38.2375 20.0373 35.8 19.9467C34.6406 19.9029 33.4 19.8748 32.1594 19.8592C31.725 19.8529 31.3219 19.8498 30.9594 19.8467H30.0406C29.6781 19.8498 29.275 19.8529 28.8406 19.8592C27.6 19.8748 26.3594 19.9029 25.2 19.9467C22.7625 20.0404 21.0281 20.1873 20.1469 20.4217C19.41 20.6206 18.7383 21.0096 18.1992 21.5498C17.6601 22.0901 17.2724 22.7625 17.075 23.4998C16.8844 24.2061 16.75 25.1467 16.6562 26.2748C16.5875 27.0936 16.5437 27.9623 16.5187 28.8342C16.5094 29.1373 16.5062 29.4217 16.5031 29.6748C16.5031 29.7654 16.5 29.8436 16.5 29.9123V30.0873C16.5 30.1561 16.5 30.2342 16.5031 30.3248C16.5062 30.5779 16.5125 30.8623 16.5187 31.1654C16.5437 32.0373 16.5875 32.9061 16.6562 33.7248C16.75 34.8529 16.8875 35.7936 17.075 36.4998C17.475 37.9967 18.65 39.1779 20.1469 39.5779C21.0281 39.8154 22.7625 39.9623 25.2 40.0529C26.3594 40.0967 27.6 40.1248 28.8406 40.1404C29.275 40.1467 29.6781 40.1498 30.0406 40.1529H30.9594C31.3219 40.1498 31.725 40.1467 32.1594 40.1404C33.4 40.1248 34.6406 40.0967 35.8 40.0529C38.2375 39.9592 39.9719 39.8123 40.8531 39.5779C42.35 39.1779 43.525 37.9998 43.925 36.4998C44.1156 35.7936 44.25 34.8529 44.3438 33.7248C44.4125 32.9061 44.4563 32.0373 44.4813 31.1654C44.4906 30.8623 44.4938 30.5779 44.4969 30.3248C44.4969 30.2342 44.5 30.1561 44.5 30.0873V29.9123ZM42.25 30.0748C42.25 30.1404 42.25 30.2123 42.2469 30.2967C42.2438 30.5404 42.2375 30.8092 42.2313 31.0998C42.2094 31.9311 42.1656 32.7623 42.1 33.5342C42.0156 34.5404 41.8969 35.3654 41.75 35.9186C41.5562 36.6404 40.9875 37.2123 40.2687 37.4029C39.6125 37.5779 37.9594 37.7186 35.7125 37.8029C34.575 37.8467 33.35 37.8748 32.1281 37.8904C31.7 37.8967 31.3031 37.8998 30.9469 37.8998H30.0531L28.8719 37.8904C27.65 37.8748 26.4281 37.8467 25.2875 37.8029C23.0406 37.7154 21.3844 37.5779 20.7312 37.4029C20.0125 37.2092 19.4437 36.6404 19.25 35.9186C19.1031 35.3654 18.9844 34.5404 18.9 33.5342C18.8344 32.7623 18.7938 31.9311 18.7688 31.0998C18.7594 30.8092 18.7563 30.5373 18.7531 30.2967C18.7531 30.2123 18.75 30.1373 18.75 30.0748V29.9248C18.75 29.8592 18.75 29.7873 18.7531 29.7029C18.7563 29.4592 18.7625 29.1904 18.7688 28.8998C18.7906 28.0686 18.8344 27.2373 18.9 26.4654C18.9844 25.4592 19.1031 24.6342 19.25 24.0811C19.4437 23.3592 20.0125 22.7873 20.7312 22.5967C21.3875 22.4217 23.0406 22.2811 25.2875 22.1967C26.425 22.1529 27.65 22.1248 28.8719 22.1092C29.3 22.1029 29.6969 22.0998 30.0531 22.0998H30.9469L32.1281 22.1092C33.35 22.1248 34.5719 22.1529 35.7125 22.1967C37.9594 22.2842 39.6156 22.4217 40.2687 22.5967C40.9875 22.7904 41.5562 23.3592 41.75 24.0811C41.8969 24.6342 42.0156 25.4592 42.1 26.4654C42.1656 27.2373 42.2063 28.0686 42.2313 28.8998C42.2406 29.1904 42.2438 29.4623 42.2469 29.7029C42.2469 29.7873 42.25 29.8623 42.25 29.9248V30.0748ZM27.7188 34.1873L34.9688 29.9686L27.7188 25.8123V34.1873Z" fill="#BCBCBC"/>
</svg>
