<svg width="185" height="64" viewBox="0 0 185 64" fill="none" xmlns="http://www.w3.org/2000/svg">
<path fill-rule="evenodd" clip-rule="evenodd" d="M13.3769 12.3001C14.7222 11.1469 16.0675 9.99379 17.7973 8.84064L19.3348 11.1469C17.7973 11.9157 16.4519 13.0689 15.1066 14.4142L13.3769 12.3001Z" fill="white"/>
<path fill-rule="evenodd" clip-rule="evenodd" d="M8.18768 19.2189C9.14864 17.4891 10.1096 16.1438 11.2628 14.6063L13.3769 16.1438C12.2237 17.4891 11.2628 19.0267 10.494 20.5642L8.18768 19.2189Z" fill="white"/>
<path fill-rule="evenodd" clip-rule="evenodd" d="M5.49693 27.4836C5.68912 25.5617 6.2657 23.832 7.03447 22.1022L9.53296 22.871C8.7642 24.4085 8.37981 26.3305 7.99543 28.0602L5.49693 27.4836Z" fill="white"/>
<path fill-rule="evenodd" clip-rule="evenodd" d="M5.30482 35.9396C5.11263 34.2099 4.92043 32.2879 5.11263 30.366H7.80332C7.61112 32.2879 7.80332 34.0177 7.99551 35.7474L5.30482 35.9396Z" fill="white"/>
<path fill-rule="evenodd" clip-rule="evenodd" d="M7.99576 44.2039C7.0348 42.4741 6.45823 40.7444 5.88165 39.0147L8.57234 38.2459C8.95672 39.9756 9.5333 41.5132 10.3021 43.2429L7.99576 44.2039Z" fill="white"/>
<path fill-rule="evenodd" clip-rule="evenodd" d="M12.8003 51.1232C11.6472 49.9701 10.494 48.4326 9.34086 46.895L11.6472 45.3575C12.4159 46.7028 13.5691 48.2404 14.9144 49.3935L12.8003 51.1232Z" fill="white"/>
<path fill-rule="evenodd" clip-rule="evenodd" d="M19.7192 56.3121C17.9895 55.5433 16.6441 54.3901 15.1066 53.237L16.6441 51.1229C17.9895 52.276 19.527 53.237 21.0646 54.0057L19.7192 56.3121Z" fill="white"/>
<path fill-rule="evenodd" clip-rule="evenodd" d="M27.7913 59.1953C26.0616 58.8109 24.3318 58.2343 22.6021 57.6577L23.3709 55.1592C24.9084 55.7358 26.8303 56.3124 28.5601 56.5046L27.7913 59.1953Z" fill="white"/>
<path fill-rule="evenodd" clip-rule="evenodd" d="M36.4399 59.1953C34.7102 59.5797 32.7883 59.5797 30.8663 59.3875V56.889C32.7883 56.889 34.518 56.889 36.2477 56.5046L36.4399 59.1953Z" fill="white"/>
<path fill-rule="evenodd" clip-rule="evenodd" d="M44.7042 56.6968C42.9745 57.4656 41.2448 58.2343 39.515 58.6187L38.7463 56.1202C40.476 55.7358 42.0135 54.9671 43.5511 54.1983L44.7042 56.6968Z" fill="white"/>
<path fill-rule="evenodd" clip-rule="evenodd" d="M51.6234 51.7003C50.4702 53.0456 48.9327 54.1988 47.3952 55.1598L45.8576 53.0456C46.0498 52.8535 46.0498 52.8535 46.242 52.6613C40.8606 47.2799 37.4012 39.5922 37.4012 31.1357C37.4012 23.2559 40.2841 16.1447 45.2811 10.7634C44.8967 10.5712 44.3201 10.1868 43.9357 9.9946L45.2811 7.68829C47.0108 8.64925 48.5483 9.61022 49.8937 10.7634L48.3561 12.8775C48.1639 12.6853 47.7796 12.4931 47.3952 12.1087C42.7826 17.1057 39.8997 23.8324 39.8997 31.1357C39.8997 36.7093 41.4372 41.8985 44.3201 46.3189C43.3591 43.2438 42.5904 39.7844 42.5904 36.3249C42.5904 28.2529 45.8576 20.9496 51.0468 15.5682C50.8546 15.1838 50.4702 14.7994 50.2781 14.6072L52.2 12.8775C53.5453 14.2228 54.6985 15.5682 55.6594 17.1057L53.5453 18.8354C53.1609 18.2589 52.9687 17.8745 52.5844 17.4901C47.9718 22.4871 45.2811 29.0216 45.2811 36.3249C45.2811 38.6312 45.4733 40.7453 46.0498 42.8595C46.242 34.7874 49.8937 27.4841 55.2751 22.1027C55.0829 21.7183 54.8907 21.3339 54.6985 20.9496L57.197 19.7964C57.9657 21.5261 58.7345 23.2559 59.1189 25.1778L56.6204 25.9466C56.4282 25.5622 56.4282 25.1778 56.236 24.7934C51.4312 29.7904 48.5483 36.5171 48.5483 44.0126C48.5483 46.1267 48.7405 48.433 49.3171 50.355C49.5093 50.1628 49.7015 49.9706 49.8937 49.7784L51.6234 51.7003Z" fill="white"/>
<path fill-rule="evenodd" clip-rule="evenodd" d="M56.8123 44.7808C56.0436 46.5106 54.8904 48.0481 53.7372 49.3934L51.6231 47.8559C52.7763 46.5106 53.7372 44.973 54.506 43.4355L56.8123 44.7808Z" fill="white"/>
<path fill-rule="evenodd" clip-rule="evenodd" d="M59.6952 36.7092C59.3108 38.4389 58.7342 40.3609 58.1576 42.0906L55.6591 41.1296C56.2357 39.5921 56.8123 37.8624 57.0045 36.1326L59.6952 36.7092Z" fill="white"/>
<path fill-rule="evenodd" clip-rule="evenodd" d="M59.6952 28.0602C60.0795 29.9821 60.0795 31.7118 59.8873 33.6338H57.3888C57.3888 31.904 57.3888 29.9821 57.0045 28.2524L59.6952 28.0602Z" fill="white"/>
<path fill-rule="evenodd" clip-rule="evenodd" d="M37.2087 4.99713C38.9385 5.18932 40.8604 5.7659 42.5901 6.34248L41.6292 9.03317C40.0916 8.2644 38.3619 7.88001 36.6322 7.49563L37.2087 4.99713Z" fill="white"/>
<path fill-rule="evenodd" clip-rule="evenodd" d="M21.449 9.80189L20.488 7.30339C22.0255 6.53462 23.7553 5.95805 25.485 5.38147L26.446 8.07216C24.7162 8.45654 22.9865 9.03312 21.449 9.80189Z" fill="white"/>
<path fill-rule="evenodd" clip-rule="evenodd" d="M34.1337 4.61269V7.30338C32.4039 7.11119 30.482 7.30338 28.7523 7.49557L28.5601 4.80488C30.482 4.61269 32.2117 4.4205 34.1337 4.61269Z" fill="white"/>
<path fill-rule="evenodd" clip-rule="evenodd" d="M32.5961 10.1863C36.2478 10.1863 39.7072 11.1472 42.7823 12.6848C41.2448 14.7989 39.8994 16.913 39.1306 19.2193C37.0165 18.2584 34.9024 17.6818 32.5961 17.6818C24.524 17.6818 18.1817 24.0241 18.1817 32.0962C18.1817 39.9761 24.524 46.5106 32.5961 46.5106C35.0946 46.5106 37.5931 45.7418 39.7072 44.5887C40.6682 46.7028 42.0135 48.8169 43.5511 50.7388C40.2838 52.6608 36.6321 53.8139 32.5961 53.8139C20.488 53.8139 10.6862 44.0121 10.6862 32.0962C10.6862 19.9881 20.488 10.1863 32.5961 10.1863Z" fill="white"/>
<path d="M86.5682 20.2273V43.5H83.0568V20.2273H86.5682ZM94.8068 33.1364V43.5H91.4091V26.0455H94.6705V28.8864H94.8864C95.2879 27.9621 95.9167 27.2197 96.7727 26.6591C97.6364 26.0985 98.7235 25.8182 100.034 25.8182C101.223 25.8182 102.265 26.0682 103.159 26.5682C104.053 27.0606 104.746 27.7955 105.239 28.7727C105.731 29.75 105.977 30.9583 105.977 32.3977V43.5H102.58V32.8068C102.58 31.5417 102.25 30.553 101.591 29.8409C100.932 29.1212 100.027 28.7614 98.875 28.7614C98.0871 28.7614 97.3864 28.9318 96.7727 29.2727C96.1667 29.6136 95.6856 30.1136 95.3295 30.7727C94.9811 31.4242 94.8068 32.2121 94.8068 33.1364ZM110.534 43.5V26.0455H113.932V43.5H110.534ZM112.25 23.3523C111.659 23.3523 111.152 23.1553 110.727 22.7614C110.311 22.3598 110.102 21.8826 110.102 21.3295C110.102 20.7689 110.311 20.2917 110.727 19.8977C111.152 19.4962 111.659 19.2955 112.25 19.2955C112.841 19.2955 113.345 19.4962 113.761 19.8977C114.186 20.2917 114.398 20.7689 114.398 21.3295C114.398 21.8826 114.186 22.3598 113.761 22.7614C113.345 23.1553 112.841 23.3523 112.25 23.3523ZM126.651 26.0455V28.7727H117.116V26.0455H126.651ZM119.673 21.8636H123.071V38.375C123.071 39.0341 123.17 39.5303 123.366 39.8636C123.563 40.1894 123.817 40.4129 124.128 40.5341C124.446 40.6477 124.791 40.7045 125.162 40.7045C125.435 40.7045 125.673 40.6856 125.878 40.6477C126.082 40.6098 126.241 40.5795 126.355 40.5568L126.969 43.3636C126.772 43.4394 126.491 43.5152 126.128 43.5909C125.764 43.6742 125.31 43.7197 124.764 43.7273C123.87 43.7424 123.037 43.5833 122.264 43.25C121.491 42.9167 120.866 42.4015 120.389 41.7045C119.912 41.0076 119.673 40.1326 119.673 39.0795V21.8636ZM137.744 43.8523C136.025 43.8523 134.544 43.4848 133.301 42.75C132.066 42.0076 131.112 40.9659 130.438 39.625C129.771 38.2765 129.438 36.697 129.438 34.8864C129.438 33.0985 129.771 31.5227 130.438 30.1591C131.112 28.7955 132.051 27.7311 133.256 26.9659C134.468 26.2008 135.884 25.8182 137.506 25.8182C138.491 25.8182 139.445 25.9811 140.369 26.3068C141.294 26.6326 142.123 27.1439 142.858 27.8409C143.593 28.5379 144.172 29.4432 144.597 30.5568C145.021 31.6629 145.233 33.0076 145.233 34.5909V35.7955H131.358V33.25H141.903C141.903 32.3561 141.722 31.5644 141.358 30.875C140.994 30.178 140.483 29.6288 139.824 29.2273C139.172 28.8258 138.407 28.625 137.528 28.625C136.574 28.625 135.741 28.8598 135.028 29.3295C134.324 29.7917 133.778 30.3977 133.392 31.1477C133.013 31.8902 132.824 32.697 132.824 33.5682V35.5568C132.824 36.7235 133.028 37.7159 133.438 38.5341C133.854 39.3523 134.434 39.9773 135.176 40.4091C135.919 40.8333 136.786 41.0455 137.778 41.0455C138.422 41.0455 139.009 40.9545 139.54 40.7727C140.07 40.5833 140.528 40.303 140.915 39.9318C141.301 39.5606 141.597 39.1023 141.801 38.5568L145.017 39.1364C144.759 40.0833 144.297 40.9129 143.631 41.625C142.972 42.3295 142.142 42.8788 141.142 43.2727C140.15 43.6591 139.017 43.8523 137.744 43.8523ZM156.355 43.8523C154.666 43.8523 153.211 43.4697 151.991 42.7045C150.779 41.9318 149.848 40.8674 149.196 39.5114C148.545 38.1553 148.219 36.6023 148.219 34.8523C148.219 33.0795 148.552 31.5152 149.219 30.1591C149.885 28.7955 150.825 27.7311 152.037 26.9659C153.249 26.2008 154.677 25.8182 156.321 25.8182C157.647 25.8182 158.829 26.0644 159.866 26.5568C160.904 27.0417 161.741 27.7235 162.378 28.6023C163.022 29.4811 163.404 30.5076 163.526 31.6818H160.219C160.037 30.8636 159.62 30.1591 158.969 29.5682C158.325 28.9773 157.461 28.6818 156.378 28.6818C155.431 28.6818 154.601 28.9318 153.889 29.4318C153.185 29.9242 152.635 30.6288 152.241 31.5455C151.848 32.4545 151.651 33.5303 151.651 34.7727C151.651 36.0455 151.844 37.1439 152.23 38.0682C152.616 38.9924 153.162 39.7083 153.866 40.2159C154.579 40.7235 155.416 40.9773 156.378 40.9773C157.022 40.9773 157.605 40.8598 158.128 40.625C158.658 40.3826 159.101 40.0379 159.457 39.5909C159.821 39.1439 160.075 38.6061 160.219 37.9773H163.526C163.404 39.1061 163.037 40.1136 162.423 41C161.81 41.8864 160.988 42.5833 159.957 43.0909C158.935 43.5985 157.734 43.8523 156.355 43.8523ZM170.557 33.1364V43.5H167.159V20.2273H170.511V28.8864H170.727C171.136 27.947 171.761 27.2008 172.602 26.6477C173.443 26.0947 174.542 25.8182 175.898 25.8182C177.095 25.8182 178.14 26.0644 179.034 26.5568C179.936 27.0492 180.633 27.7841 181.125 28.7614C181.625 29.7311 181.875 30.9432 181.875 32.3977V43.5H178.477V32.8068C178.477 31.5265 178.148 30.5341 177.489 29.8295C176.83 29.1174 175.913 28.7614 174.739 28.7614C173.936 28.7614 173.216 28.9318 172.58 29.2727C171.951 29.6136 171.455 30.1136 171.091 30.7727C170.735 31.4242 170.557 32.2121 170.557 33.1364Z" fill="white"/>
</svg>
