<svg width="61" height="60" viewBox="0 0 61 60" fill="none" xmlns="http://www.w3.org/2000/svg">
<rect x="1" y="0.5" width="59" height="59" stroke="#979495" stroke-opacity="0.5"/>
<path fill-rule="evenodd" clip-rule="evenodd" d="M38.2561 23.3189C37.7854 22.6415 36.5267 21.6895 34.4881 22.1002C33.2987 22.3389 32.5881 22.9269 32.1361 23.7029C31.6547 24.5295 31.4214 25.6535 31.4214 26.9615C31.4214 27.3152 31.2809 27.6543 31.0309 27.9043C30.7808 28.1544 30.4417 28.2949 30.0881 28.2949C26.9334 28.2949 23.9307 27.3575 21.4041 24.8229C21.2131 25.8512 21.1379 26.8978 21.1801 27.9429C21.2507 29.3909 21.5961 30.8429 22.4161 32.0869C23.2227 33.3095 24.5494 34.4295 26.7681 35.1335C26.9855 35.2025 27.1815 35.3261 27.3375 35.4925C27.4936 35.6588 27.6043 35.8624 27.6591 36.0838C27.714 36.3052 27.7111 36.537 27.6508 36.7569C27.5905 36.9769 27.4748 37.1777 27.3147 37.3402C26.6043 38.0694 25.7988 38.6995 24.9201 39.2135C26.3334 39.3602 27.6961 39.3709 28.9601 39.2562C31.5201 39.0242 33.5587 38.2922 34.8334 37.2562C37.5174 35.0802 38.9534 31.8349 38.6867 26.3975C38.6414 25.5042 39.5041 24.5402 39.9201 23.8082C39.2921 23.9255 38.6627 23.9042 38.2561 23.3189ZM20.6254 20.6455C20.8668 20.6175 21.1113 20.6559 21.3324 20.7567C21.5535 20.8576 21.7429 21.0169 21.8801 21.2175C23.8481 24.0962 26.2107 25.2935 28.8334 25.5655C28.9614 24.4442 29.2641 23.3362 29.8334 22.3602C30.6681 20.9282 32.0254 19.8749 33.9641 19.4855C36.6441 18.9469 38.6841 19.9175 39.8667 21.1055L42.2561 20.6589C42.5061 20.612 42.7643 20.6377 43.0002 20.7328C43.2361 20.8279 43.4399 20.9886 43.5875 21.1957C43.7351 21.4029 43.8204 21.648 43.8332 21.902C43.8461 22.1561 43.786 22.4085 43.6601 22.6295L41.3667 26.6589C41.5761 32.4735 39.9601 36.5322 36.5147 39.3282C34.6881 40.8109 32.0721 41.6522 29.2014 41.9122C26.3081 42.1735 23.0374 41.8575 19.7867 40.9082C19.509 40.8272 19.2651 40.658 19.092 40.4263C18.9188 40.1945 18.8257 39.9127 18.8268 39.6234C18.8278 39.334 18.923 39.0529 19.0978 38.8224C19.2727 38.5919 19.5177 38.4245 19.7961 38.3455C21.4307 37.8802 22.6761 37.4789 23.8001 36.7762C22.2014 35.9282 21.0241 34.8189 20.1907 33.5549C19.0334 31.7975 18.6041 29.8375 18.5187 28.0709C18.4334 26.3042 18.6881 24.6669 18.9574 23.4869C19.1107 22.8135 19.2894 22.1389 19.5361 21.4935C19.6231 21.2661 19.7707 21.0667 19.963 20.9173C20.1553 20.7678 20.3835 20.6738 20.6254 20.6455Z" fill="#BCBCBC"/>
</svg>
